<svg xmlns="http://www.w3.org/2000/svg" viewBox="0 0 750 500"><g id="freepik--background-simple--inject-11"><path d="M405,193.43c25.48-2,32.05-4.56,57.35-8.17,31.69-4.51,47.5-8.55,78.94-2.54s62.33,24.57,74.51,54.17c15.31,37.2-3.58,81.66-34.72,107.12s-71.78,35.73-111.36,42.88c-34.38,6.22-69.31,10.62-104.19,8.81s-69.9-10.09-100-27.85c-37.46-22.12-65.29-57.64-86.7-95.5-15.53-27.46-28.36-57.39-29.69-88.91s10.55-64.94,36.27-83.2c32.39-23,78.79-16.46,112,5.34,29.93,19.66,40.82,32.87,58.17,59.92a62.46,62.46,0,0,0,27.88,23.92A46,46,0,0,0,405,193.43Z" style="fill:#f0f0f0"></path></g><g id="freepik--Device--inject-11"><rect x="174.02" y="135.22" width="402.04" height="265.86" rx="14.57" style="fill:#263238"></rect><path d="M157.21,381.42H592.79a0,0,0,0,1,0,0v5.47a17.8,17.8,0,0,1-17.8,17.8H175a17.8,17.8,0,0,1-17.8-17.8v-5.47a0,0,0,0,1,0,0Z" style="fill:#263238"></path><rect x="184.82" y="145.79" width="379.33" height="224.52" style="fill:#e0e0e0"></rect><polygon points="335.41 381.42 340.81 390.02 416.87 390.02 421.89 381.42 335.41 381.42" style="fill:#455a64"></polygon><rect x="192.63" y="153.39" width="364.48" height="216.2" rx="3.27" style="fill:#455a64"></rect><rect x="192.63" y="169.23" width="364.48" height="200.36" style="fill:#fafafa"></rect><path d="M222.52,161.74a2.91,2.91,0,1,1-2.91-2.92A2.91,2.91,0,0,1,222.52,161.74Z" style="fill:#407BFF"></path><path d="M204.88,161.74a2.91,2.91,0,1,1-2.91-2.92A2.91,2.91,0,0,1,204.88,161.74Z" style="fill:#407BFF"></path><path d="M213.35,161.74a2.91,2.91,0,1,1-2.91-2.92A2.91,2.91,0,0,1,213.35,161.74Z" style="fill:#407BFF"></path><path d="M465.25,252.68l1.13-.09c.37,0,.83-.12,1.38-.21a14.6,14.6,0,0,0,1.83-.56,12.27,12.27,0,0,0,4.44-2.95,12.75,12.75,0,0,0,2-2.76,12.46,12.46,0,0,0,1.23-3.68,12.17,12.17,0,0,0-10.85-14.16c-1-.07-2-.06-3-.06H453.8l-14.16,0-155.14.07A12.12,12.12,0,0,0,272.68,238a12.25,12.25,0,0,0,.15,5.39,12.08,12.08,0,0,0,11.84,9h5.38l41.19,0,69.75.05,47,.09,12.78,0,3.33,0,1.13,0s-.38,0-1.13,0l-3.33,0-12.78.05-47,.08-69.75.06H284.67a12.34,12.34,0,0,1-5.37-1.13,12.55,12.55,0,0,1-7-8.3,12.46,12.46,0,0,1,2.19-10.77,12.61,12.61,0,0,1,10-4.93l155.14.08,14.16,0h9.63c1,0,2,0,3,.07a12.45,12.45,0,0,1,9.75,18.21,13.52,13.52,0,0,1-2.05,2.79,12.57,12.57,0,0,1-4.52,2.94,14.52,14.52,0,0,1-1.86.54c-.55.08-1,.16-1.38.19C465.64,252.68,465.25,252.68,465.25,252.68Z" style="fill:#263238"></path><path d="M465.25,252.68H441.6V228.06h23.65a12.31,12.31,0,0,1,12.31,12.31h0A12.31,12.31,0,0,1,465.25,252.68Z" style="fill:#407BFF"></path><path d="M461.12,238.05c-.05,0-.05-.41-.25-1.12a4.64,4.64,0,0,0-1.72-2.45,4.46,4.46,0,1,0-4.23,7.75,4.54,4.54,0,0,0,4.24-.6,4.68,4.68,0,0,0,1.71-2.46c.2-.7.2-1.12.25-1.12a.86.86,0,0,1,0,.31,2.94,2.94,0,0,1-.08.86,4.69,4.69,0,0,1-1.69,2.7,4.88,4.88,0,0,1-4.63.76,4.91,4.91,0,0,1,0-9.25,4.85,4.85,0,0,1,4.63.75,4.72,4.72,0,0,1,1.69,2.7,3,3,0,0,1,.08.87A.78.78,0,0,1,461.12,238.05Z" style="fill:#fff"></path><path d="M467.41,245.88a19.86,19.86,0,0,1-3.8-2.24A19,19,0,0,1,460.1,241a36.35,36.35,0,0,1,7.31,4.91Z" style="fill:#fff"></path><path d="M287.47,247.29a47.44,47.44,0,0,1-.26-7,47.33,47.33,0,0,1,.26-7,47.33,47.33,0,0,1,.26,7A47.44,47.44,0,0,1,287.47,247.29Z" style="fill:#455a64"></path><rect x="257.53" y="295.14" width="59.09" height="57.17" style="fill:#e0e0e0"></rect><polygon points="262.12 347.42 278.46 318 291.83 336.8 299.96 326.82 312.04 347.42 262.12 347.42" style="fill:#407BFF"></polygon><path d="M297.53,312.28a4.26,4.26,0,1,1-4.25-4.25A4.25,4.25,0,0,1,297.53,312.28Z" style="fill:#407BFF"></path><path d="M312,347.58s0-.09,0-.24,0-.39,0-.66q0-.92,0-2.58c0-2.26,0-5.54-.07-9.7,0-8.35-.07-20.25-.12-34.52l.24.24-49.92,0c-.07.06.53-.53.28-.27h0v6.45q0,3.22,0,6.37V325c0,8,0,15.57,0,22.54l-.24-.25,36.09.13,10.19.06,2.7,0h.7l.24,0h-.21l-.68,0-2.65,0-10.13.07-36.25.12h-.25v-.24c0-7,0-14.54,0-22.54V312.72q0-3.15,0-6.37V299.9h0c-.25.24.35-.36.29-.29l49.92,0h.25v.24c-.06,14.34-.1,26.28-.13,34.67,0,4.14-.05,7.4-.06,9.65,0,1.09,0,1.93,0,2.53,0,.27,0,.48,0,.64A.85.85,0,0,1,312,347.58Z" style="fill:#455a64"></path><rect x="351.59" y="295.14" width="59.09" height="57.17" style="fill:#407BFF"></rect><polygon points="356.17 347.42 372.52 318 385.89 336.8 394.01 326.82 406.1 347.42 356.17 347.42" style="fill:#e0e0e0"></polygon><path d="M391.58,312.28a4.25,4.25,0,1,1-4.25-4.25A4.25,4.25,0,0,1,391.58,312.28Z" style="fill:#e0e0e0"></path><path d="M406.1,347.58s0-.09,0-.24,0-.39,0-.66q0-.92,0-2.58c0-2.26,0-5.54-.06-9.7,0-8.35-.07-20.25-.12-34.52l.24.24-49.92,0,.27-.27h0v12.82q0,6.3,0,12.32c0,8,0,15.57,0,22.54l-.25-.25,36.1.13,10.18.06,2.7,0h.7l.25,0h-.22l-.67,0-2.66,0-10.12.07-36.26.12h-.24v-.24c0-7,0-14.54,0-22.54q0-6,0-12.32V299.9h0c-.25.24.34-.36.29-.29l49.92,0h.24v.24c0,14.34-.09,26.28-.12,34.67,0,4.14-.05,7.4-.07,9.65,0,1.09,0,1.93,0,2.53,0,.27,0,.48,0,.64A1.66,1.66,0,0,1,406.1,347.58Z" style="fill:#455a64"></path><rect x="445.65" y="295.14" width="59.09" height="57.17" style="fill:#e0e0e0"></rect><polygon points="450.23 347.42 466.57 318 479.94 336.8 488.07 326.82 500.15 347.42 450.23 347.42" style="fill:#407BFF"></polygon><path d="M485.64,312.28a4.26,4.26,0,1,1-4.25-4.25A4.25,4.25,0,0,1,485.64,312.28Z" style="fill:#407BFF"></path><path d="M500.16,347.58a1.35,1.35,0,0,1,0-.24c0-.17,0-.39,0-.66q0-.92,0-2.58c0-2.26,0-5.54-.06-9.7,0-8.35-.08-20.25-.13-34.52l.25.24-49.93,0c-.06.06.53-.53.28-.27h0v12.82q0,6.3,0,12.32c0,8,0,15.57,0,22.54l-.24-.25,36.1.13,10.18.06,2.7,0h.7l.25,0h-.22l-.68,0-2.65,0-10.13.07-36.25.12H450v-.24c0-7,0-14.54,0-22.54q0-6,0-12.32V299.9h0c-.25.24.34-.36.28-.29l49.93,0h.24v.24c0,14.34-.1,26.28-.13,34.67,0,4.14,0,7.4-.06,9.65,0,1.09,0,1.93,0,2.53,0,.27,0,.48,0,.64S500.16,347.58,500.16,347.58Z" style="fill:#455a64"></path><rect x="337.45" y="199.12" width="74.84" height="6.27" style="fill:#455a64"></rect><path d="M572.61,381.42c0,.15-89.24.26-199.29.26s-199.3-.11-199.3-.26,89.22-.26,199.3-.26S572.61,381.28,572.61,381.42Z" style="fill:#455a64"></path></g><g id="freepik--Plants--inject-11"><path d="M117.11,271.94c-5.66.92-8.19,7.88-7.7,13.59s2.85,11.31,2.22,17c-.8,7.24-6.27,13.36-6.91,20.62-.75,8.56,5.3,16.15,7.11,24.55.88,4.09.75,8.41,2.27,12.3a15.38,15.38,0,0,0,29.71-5.3c.12-6.57-3.93-12.76-3.44-19.32.36-4.84,3.2-9.44,2.6-14.26-.73-5.73-6-9.8-7.92-15.27s-.07-11.5-.72-17.25c-1.16-10.31-6.88-17.49-17.22-16.67" style="fill:#407BFF"></path><path d="M88.19,321.86c-1,9.55,3.26,20.79,8.17,29a45.52,45.52,0,0,0,21.38,18.56c1,.42,2.25.77,3.09.09a3.1,3.1,0,0,0,.78-2.45,46.9,46.9,0,0,0-33.42-45.24" style="fill:#407BFF"></path><path d="M88.19,321.86c-1,9.55,3.26,20.79,8.17,29a45.52,45.52,0,0,0,21.38,18.56c1,.42,2.25.77,3.09.09a3.1,3.1,0,0,0,.78-2.45,46.9,46.9,0,0,0-33.42-45.24" style="opacity:0.2"></path><path d="M129.8,389.43a2.35,2.35,0,0,1-.27-.53l-.69-1.57c-.57-1.36-1.43-3.32-2.52-5.73a202.11,202.11,0,0,0-9.48-18.36A205,205,0,0,0,105.49,346c-1.56-2.14-2.85-3.85-3.76-5l-1-1.36a2.31,2.31,0,0,1-.33-.5,2.46,2.46,0,0,1,.42.43l1.11,1.3c.95,1.13,2.29,2.81,3.9,4.92A175.85,175.85,0,0,1,117.3,363a174.66,174.66,0,0,1,9.37,18.48c1,2.44,1.86,4.42,2.37,5.82.24.65.43,1.18.59,1.6A2.21,2.21,0,0,1,129.8,389.43Z" style="fill:#263238"></path><path d="M123.65,298.37a6.24,6.24,0,0,1,.1.92c0,.65.11,1.52.19,2.63.15,2.33.36,5.63.63,9.68.51,8.17,1.24,19.46,2.11,31.92s1.74,23.75,2.38,31.92c.31,4,.56,7.33.74,9.67.07,1.1.13,2,.18,2.63a5.82,5.82,0,0,1,0,.92,6.06,6.06,0,0,1-.13-.91c-.07-.65-.16-1.52-.28-2.62l-.91-9.66c-.74-8.16-1.66-19.44-2.54-31.91s-1.54-23.76-2-31.94c-.19-4.05-.34-7.35-.45-9.69q-.06-1.67-.09-2.64A5.89,5.89,0,0,1,123.65,298.37Z" style="fill:#263238"></path><path d="M114.86,375.81h23.92v17.56a11.48,11.48,0,0,1-11.48,11.48h0A11.49,11.49,0,0,1,115.83,394Z" style="fill:#455a64"></path><path d="M645.38,375.53A18.75,18.75,0,0,1,657,374.12c2.11.35,4.31,1,5.74,2.56s1.71,4.37.06,5.73a5.53,5.53,0,0,1-3.62.92c-3.07,0-6.48-.58-8.93,1.27-1.4,1-2.33,2.81-4,3.33a4,4,0,0,1-4.35-1.94,6.73,6.73,0,0,1-.49-5A7.61,7.61,0,0,1,645.38,375.53Z" style="fill:#407BFF"></path><path d="M637.29,359.9c2.16,3.09,6.36,2.07,8.3.18s2.77-4.61,3.52-7.22c1.72-5.94,3.44-12.18,2.17-18.24a10.14,10.14,0,0,0-2.33-5,5.26,5.26,0,0,0-5-1.67c-2.12.56-3.43,2.63-4.39,4.6a43.56,43.56,0,0,0-4.29,18.67c0,3,.34,6.16,2,8.64" style="fill:#407BFF"></path><path d="M631.35,364.33A11.23,11.23,0,0,0,633.1,354a19.85,19.85,0,0,0-6.12-8.88,33,33,0,0,0-11-6.47,11.66,11.66,0,0,0-4.93-.84,5.19,5.19,0,0,0-4.14,2.51c-1.15,2.2,0,4.86,1.15,7a83.14,83.14,0,0,0,7.2,11c2.16,2.79,4.63,5.53,7.92,6.79s6.7,1.11,8.45-1.17" style="fill:#407BFF"></path><path d="M637.14,406.46a6.68,6.68,0,0,0,.2-1.41c.1-1,.22-2.3.37-3.82a55.24,55.24,0,0,1,.86-5.62,43.45,43.45,0,0,1,2-6.62,24.63,24.63,0,0,1,3.38-6,12.61,12.61,0,0,1,4.28-3.55,12,12,0,0,1,3.6-1.13,6.65,6.65,0,0,0,1.4-.2,7.07,7.07,0,0,0-1.42,0,10.85,10.85,0,0,0-3.76,1,12.6,12.6,0,0,0-4.51,3.59,23.9,23.9,0,0,0-3.51,6.11,40.27,40.27,0,0,0-2,6.73,47.38,47.38,0,0,0-.75,5.69c-.12,1.62-.17,2.94-.19,3.85A6.62,6.62,0,0,0,637.14,406.46Z" style="fill:#263238"></path><path d="M637.4,403.51a2.32,2.32,0,0,0,0-.65V401c0-1.62,0-3.95.08-6.84.14-5.77.64-13.74,1.6-22.49s2.25-16.64,3.42-22.3c.27-1.41.55-2.69.81-3.8s.46-2.09.67-2.87.32-1.33.43-1.81a2.48,2.48,0,0,0,.12-.64,2.37,2.37,0,0,0-.23.61l-.54,1.78c-.24.78-.48,1.74-.76,2.85s-.6,2.38-.9,3.8a209.13,209.13,0,0,0-3.6,22.31c-1,8.78-1.39,16.77-1.43,22.55,0,2.9,0,5.24.1,6.86,0,.75.09,1.37.12,1.85A3,3,0,0,0,637.4,403.51Z" style="fill:#263238"></path><path d="M637.44,388.1a11.53,11.53,0,0,0,0-1.94,51.25,51.25,0,0,0-.6-5.27,72.64,72.64,0,0,0-4.92-16.75,48.19,48.19,0,0,0-9.42-14.67,23.68,23.68,0,0,0-2.22-2.06c-.34-.29-.64-.58-.94-.81s-.6-.4-.86-.59a13.23,13.23,0,0,0-1.64-1.05,58.3,58.3,0,0,1,5.36,4.79,50.79,50.79,0,0,1,9.19,14.62,71.91,71.91,0,0,1,3.23,9c.84,2.82,1.4,5.42,1.82,7.6s.63,4,.77,5.21A13.23,13.23,0,0,0,637.44,388.1Z" style="fill:#263238"></path></g><g id="freepik--Pictures--inject-11"><polygon points="664.57 190.52 608.08 191.69 609.6 265.35 666.12 265.6 664.57 190.52" style="fill:#407BFF"></polygon><polygon points="660.91 193.22 611.48 194.24 612.86 261.05 662.32 261.69 660.91 193.22" style="fill:#fafafa"></polygon><polygon points="652.5 205.54 619.68 204.97 620.64 251.66 653.44 250.98 652.5 205.54" style="fill:#263238"></polygon><polygon points="620.64 251.66 652.95 226.99 619.68 204.97 620.64 251.66" style="fill:#455a64"></polygon><polygon points="645.34 129.47 606.55 130.27 607.6 180.85 646.4 181.02 645.34 129.47" style="fill:#455a64"></polygon><polygon points="642.83 131.32 608.88 132.02 609.83 177.89 643.79 178.34 642.83 131.32" style="fill:#fafafa"></polygon><polygon points="637.05 139.78 614.51 139.38 615.17 171.45 637.7 170.98 637.05 139.78" style="fill:#407BFF"></polygon><path d="M629.63,155s.14-.36.26-1a4.22,4.22,0,0,0-.38-2.71,4.07,4.07,0,1,0-3,5.82A4.28,4.28,0,0,0,629,155.8c.46-.49.63-.83.67-.81a2.13,2.13,0,0,1-.52.94,4.24,4.24,0,0,1-2.51,1.51,4.45,4.45,0,0,1-4.11-1.31,4.52,4.52,0,0,1,3.88-7.59,4.46,4.46,0,0,1,3.47,2.56,4.29,4.29,0,0,1,.25,2.92A2.33,2.33,0,0,1,629.63,155Z" style="fill:#263238"></path><path d="M631.52,164a15.67,15.67,0,0,1-2.2-3.4,15.75,15.75,0,0,1-1.73-3.65,16.33,16.33,0,0,1,2.19,3.4A16.6,16.6,0,0,1,631.52,164Z" style="fill:#263238"></path></g><g id="freepik--Floor--inject-11"><path d="M665.62,404.68c0,.15-126.52.26-282.56.26s-282.59-.11-282.59-.26,126.5-.26,282.59-.26S665.62,404.54,665.62,404.68Z" style="fill:#263238"></path></g><g id="freepik--Character--inject-11"><path d="M501.35,280.22s.89-9.49,1.79-9.41,1.05,1.76.94,2.58,0,4,0,4Z" style="fill:#ffbe9d"></path><path d="M582.78,272.45l-4.55,32,21,91.74-58,4.64,25-147.74S582.73,251.22,582.78,272.45Z" style="fill:#263238"></path><polygon points="511.47 433.94 508.12 471.8 522.43 471.8 528.74 433.94 511.47 433.94" style="fill:#ffbe9d"></polygon><path d="M508.12,471.8s-9.66,1.25-11.38,2.49l25.31-.3.38-2.19Z" style="fill:#ffbe9d"></path><polygon points="496.74 474.3 496.74 475.31 522.8 475.03 522.8 473.94 496.74 474.3" style="fill:#407BFF"></polygon><path d="M506,474.88c-.14.06-.55-.72-1.39-1.33s-1.69-.8-1.67-.94,1-.18,2,.54S506.09,474.85,506,474.88Z" style="fill:#407BFF"></path><path d="M522.76,471.05c0,.14-1.74.49-3.72,1.43s-3.38,2-3.48,1.93a8.24,8.24,0,0,1,3.27-2.39A8,8,0,0,1,522.76,471.05Z" style="fill:#407BFF"></path><path d="M522.17,470.43a97.21,97.21,0,0,1-14.06-.71,49.25,49.25,0,0,1,7,.11A48.59,48.59,0,0,1,522.17,470.43Z" style="fill:#407BFF"></path><path d="M523.85,465.45a60.23,60.23,0,0,1-7.75,1.67,63.48,63.48,0,0,1-7.84,1.18,63.39,63.39,0,0,1,7.75-1.67A64.06,64.06,0,0,1,523.85,465.45Z" style="fill:#407BFF"></path><path d="M523.6,465.63a4.29,4.29,0,0,1-1.89-.41,9.48,9.48,0,0,1-1.88-1,8.31,8.31,0,0,1-1-.77,1.61,1.61,0,0,1-.44-.62,1,1,0,0,1,.08-.86.85.85,0,0,1,.81-.36,2.63,2.63,0,0,1,.7.2,5.4,5.4,0,0,1,1.11.62,5.6,5.6,0,0,1,1.48,1.54,3.26,3.26,0,0,1,.67,1.82c-.08,0-.27-.7-1-1.62a5.8,5.8,0,0,0-1.45-1.36,4.87,4.87,0,0,0-1-.54c-.37-.17-.79-.24-.9,0a.71.71,0,0,0,.28.85,10.47,10.47,0,0,0,.91.76,12,12,0,0,0,1.75,1C522.9,465.38,523.61,465.55,523.6,465.63Z" style="fill:#407BFF"></path><path d="M523.47,466a3.12,3.12,0,0,1-.36-1.87,6,6,0,0,1,.44-2,5.32,5.32,0,0,1,.6-1.09,5.13,5.13,0,0,1,.42-.53,1,1,0,0,1,.75-.37.85.85,0,0,1,.72.49,1.47,1.47,0,0,1,.14.74,5.45,5.45,0,0,1-.2,1.24,5.32,5.32,0,0,1-1,1.86,3.11,3.11,0,0,1-1.5,1.17c0-.07.57-.46,1.21-1.38a5.48,5.48,0,0,0,.8-1.77,4.67,4.67,0,0,0,.16-1.13c0-.38-.15-.72-.38-.72s-.53.38-.76.68a5.94,5.94,0,0,0-.58,1,6.3,6.3,0,0,0-.51,1.89C523.35,465.25,523.55,466,523.47,466Z" style="fill:#407BFF"></path><path d="M525.39,471.88A7.73,7.73,0,0,1,524,469a7.62,7.62,0,0,1-.55-3.22,17.48,17.48,0,0,1,1,3.06A18.68,18.68,0,0,1,525.39,471.88Z" style="fill:#407BFF"></path><path d="M527.1,470.54a9.29,9.29,0,0,1-4.09-5.23c.14-.07.83,1.25,2,2.68S527.19,470.42,527.1,470.54Z" style="fill:#407BFF"></path><polygon points="564.88 437.04 594.2 460.28 601.17 450.08 574.96 421.55 564.88 437.04" style="fill:#ffbe9d"></polygon><path d="M592.13,460.85s-4.51,8.63-4.47,10.76l14.24-20.92-1.57-1.57Z" style="fill:#ffbe9d"></path><polygon points="587.66 471.61 588.49 472.19 603.18 450.67 602.29 450.04 587.66 471.61" style="fill:#407BFF"></polygon><path d="M593.41,464.39c0,.14-.9,0-1.88.38s-1.62.92-1.73.83.44-.93,1.57-1.31S593.47,464.27,593.41,464.39Z" style="fill:#407BFF"></path><path d="M599.89,448.42c.14.06-.59,1.71-.95,3.87s-.26,3.94-.41,4a10.61,10.61,0,0,1,1.36-7.83Z" style="fill:#407BFF"></path><path d="M599.09,447.87a40.75,40.75,0,0,1-3.71,5.19,42,42,0,0,1-4.12,4.9,40.34,40.34,0,0,1,3.72-5.2A39.81,39.81,0,0,1,599.09,447.87Z" style="fill:#407BFF"></path><path d="M595.94,444.32a50.51,50.51,0,0,1-2.69,6.47,48.33,48.33,0,0,1-3.14,6.25,50.74,50.74,0,0,1,2.69-6.46A47.41,47.41,0,0,1,595.94,444.32Z" style="fill:#407BFF"></path><path d="M595.93,444.63c.05,0-.42.63-1.42,1.32a9,9,0,0,1-1.87,1,8,8,0,0,1-1.2.38,1.77,1.77,0,0,1-.76,0,1,1,0,0,1-.66-.56.86.86,0,0,1,.17-.87,2.52,2.52,0,0,1,.56-.46,5.75,5.75,0,0,1,3.26-.89,3.16,3.16,0,0,1,1.87.5c0,.08-.72-.18-1.87-.14a5.74,5.74,0,0,0-3,.94c-.35.21-.65.52-.54.73a.71.71,0,0,0,.86.26,10,10,0,0,0,1.14-.32,12,12,0,0,0,1.85-.84C595.33,445.06,595.88,444.57,595.93,444.63Z" style="fill:#407BFF"></path><path d="M596.14,444.93a3.14,3.14,0,0,1-1.74-.78,5.73,5.73,0,0,1-1.42-1.53,5.31,5.31,0,0,1-.55-1.12,4,4,0,0,1-.19-.64,1,1,0,0,1,.12-.83.88.88,0,0,1,.82-.31,1.53,1.53,0,0,1,.68.31,5.38,5.38,0,0,1,.9.88,5.3,5.3,0,0,1,1,1.85,3.14,3.14,0,0,1,.1,1.9,18.32,18.32,0,0,0-.44-1.78,5.63,5.63,0,0,0-1-1.68,5.57,5.57,0,0,0-.83-.77c-.29-.24-.68-.29-.82-.1s0,.65.13,1a5.51,5.51,0,0,0,.48,1,6.24,6.24,0,0,0,1.26,1.5C595.48,444.62,596.17,444.85,596.14,444.93Z" style="fill:#407BFF"></path><path d="M602.09,446.74a7.68,7.68,0,0,1-3.23-.5,7.77,7.77,0,0,1-3-1.39,138.34,138.34,0,0,1,6.19,1.89Z" style="fill:#407BFF"></path><path d="M602,444.57a6.73,6.73,0,0,1-3.28.79,6.58,6.58,0,0,1-3.35-.44c0-.14,1.51,0,3.32-.06S601.92,444.42,602,444.57Z" style="fill:#407BFF"></path><path d="M536.62,322.82s-11.2,74.39-9.57,78,37.89,40.73,37.89,40.73l13.61-23.31s-24-26.59-23.65-28,17.3-73.41,17.3-73.41Z" style="fill:#407BFF"></path><path d="M539.2,414.88l9.56-21,11-23.58a174.46,174.46,0,0,0-17,30.83A53.56,53.56,0,0,0,539.2,414.88Z" style="fill:#407BFF"></path><path d="M539.2,414.88l9.56-21,11-23.58a174.46,174.46,0,0,0-17,30.83A53.56,53.56,0,0,0,539.2,414.88Z" style="opacity:0.4"></path><path d="M532.64,350.28c.11-.79,9.14-21.1,9.14-21.1L537.39,323l-.77-.17Z" style="fill:#407BFF"></path><path d="M532.64,350.28c.11-.79,9.14-21.1,9.14-21.1L537.39,323l-.77-.17Z" style="opacity:0.4"></path><path d="M578.56,315.82l.67,2.76a32.47,32.47,0,0,1-3.41,24l-30.36,52.63a42.11,42.11,0,0,0-4.65,12l-7.56,34s-23.87.81-24.9,0,3.08-23.32,5.82-40.37c2.07-12.86,19.27-52.77,27.61-71.62l-5.16-6.36,9-1.49Z" style="fill:#407BFF"></path><path d="M533.25,441.17a4.12,4.12,0,0,1-1,.16c-.64.07-1.55.15-2.69.22-2.27.15-5.42.26-8.89.25s-6.62-.11-8.89-.23c-1.14-.05-2.06-.11-2.69-.16a3.3,3.3,0,0,1-1-.13,4.31,4.31,0,0,1,1-.06h2.69l8.88.08c3.47,0,6.6-.05,8.87-.1l2.7-.07A3.38,3.38,0,0,1,533.25,441.17Z" style="fill:#263238"></path><path d="M534.56,434.78c0,.14-5.74.23-12.81.2s-12.82-.16-12.82-.29,5.74-.23,12.82-.21S534.56,434.64,534.56,434.78Z" style="fill:#263238"></path><path d="M574.38,413.42a4.15,4.15,0,0,1-.51.94l-1.55,2.46-5.14,8.09-5.12,8.1-1.57,2.45a4.16,4.16,0,0,1-.64.86,4.59,4.59,0,0,1,.47-1c.33-.6.82-1.47,1.43-2.53,1.24-2.12,3-5,5-8.19s3.89-6,5.28-8c.7-1,1.27-1.82,1.68-2.38A4.21,4.21,0,0,1,574.38,413.42Z" style="fill:#263238"></path><path d="M563.51,439.54a11.39,11.39,0,0,1-1.16-3.13,11,11,0,0,1-.68-3.26,11.4,11.4,0,0,1,1.16,3.12A11.23,11.23,0,0,1,563.51,439.54Z" style="fill:#263238"></path><path d="M565.63,439.47a28.71,28.71,0,0,1-1.13-5.24,28.3,28.3,0,0,1-.62-5.32,57.82,57.82,0,0,1,1.75,10.56Z" style="fill:#263238"></path><path d="M568.4,435.52a31.16,31.16,0,0,1-1.25-4.57,27.75,27.75,0,0,1-1-4.63,19,19,0,0,1,1.48,4.51A18.09,18.09,0,0,1,568.4,435.52Z" style="fill:#263238"></path><path d="M570.76,430.05a20.21,20.21,0,0,1-1.13-4.41,20.56,20.56,0,0,1-.64-4.52,21.82,21.82,0,0,1,1.13,4.42A21.18,21.18,0,0,1,570.76,430.05Z" style="fill:#263238"></path><path d="M573.81,425.52a34.59,34.59,0,0,1-1.07-4.36,33,33,0,0,1-1-4.39,15,15,0,0,1,1.45,4.28A14.76,14.76,0,0,1,573.81,425.52Z" style="fill:#263238"></path><path d="M576.53,421.68a13.48,13.48,0,0,1-1.14-3.55,14.22,14.22,0,0,1-.66-3.68,28.31,28.31,0,0,1,1.8,7.23Z" style="fill:#263238"></path><path d="M520.82,434.53a63.93,63.93,0,0,1-5.93,3.25,65.82,65.82,0,0,1-6,3.09,7.83,7.83,0,0,1,1.63-1.15c1-.65,2.51-1.5,4.17-2.38s3.19-1.61,4.31-2.11A7.61,7.61,0,0,1,520.82,434.53Z" style="fill:#263238"></path><path d="M528.18,434.64a10.08,10.08,0,0,1-1.88,1.23c-1.2.69-2.87,1.6-4.76,2.54s-3.64,1.71-4.92,2.24a9.44,9.44,0,0,1-2.11.75,10.08,10.08,0,0,1,2-1.07l4.83-2.37,4.82-2.4A10.34,10.34,0,0,1,528.18,434.64Z" style="fill:#263238"></path><path d="M533.78,434.64a30.07,30.07,0,0,1-4.68,3.86,31,31,0,0,1-5.11,3.27,46.19,46.19,0,0,1,4.81-3.68A49.8,49.8,0,0,1,533.78,434.64Z" style="fill:#263238"></path><path d="M534.39,438.16c.09.11-.84,1-2.08,1.92a8,8,0,0,1-2.39,1.52,8.23,8.23,0,0,1,2.09-1.92A8.14,8.14,0,0,1,534.39,438.16Z" style="fill:#263238"></path><path d="M514.29,434.41a14.29,14.29,0,0,1-3.08,2.13,14.11,14.11,0,0,1-3.35,1.7,28.28,28.28,0,0,1,6.43-3.83Z" style="fill:#263238"></path><path d="M541.12,329a26,26,0,0,1-1.27,3.33c-.82,2-2,4.85-3.18,8s-2.27,6-3,8a27,27,0,0,1-1.32,3.3,4.08,4.08,0,0,1,.21-.93c.17-.59.43-1.44.77-2.49.68-2.09,1.69-5,2.9-8.09s2.42-5.93,3.33-7.93c.46-1,.84-1.8,1.12-2.35A3.77,3.77,0,0,1,541.12,329Z" style="fill:#263238"></path><path d="M538.63,417.26a2.62,2.62,0,0,1,0-.59c.05-.44.13-1,.21-1.68s.22-1.62.45-2.65.41-2.2.77-3.47c.17-.63.35-1.3.53-2s.44-1.4.67-2.14c.44-1.48,1.05-3,1.65-4.66a104.54,104.54,0,0,1,4.78-10.27,180.51,180.51,0,0,1,10.87-17.44c1.49-2.16,2.73-3.89,3.6-5.08l1-1.36a3.39,3.39,0,0,1,.38-.46,2.5,2.5,0,0,1-.29.52c-.25.36-.55.83-.93,1.41l-3.47,5.17C556,376.93,552,383,548.17,390a111.35,111.35,0,0,0-4.79,10.2c-.61,1.62-1.24,3.15-1.69,4.62-.24.74-.49,1.44-.69,2.12s-.38,1.35-.55,2c-.38,1.26-.61,2.43-.85,3.44s-.41,1.9-.53,2.62-.22,1.23-.3,1.66A3,3,0,0,1,538.63,417.26Z" style="fill:#263238"></path><path d="M568.4,253.17l-23.49,2s-7,.16-14.68,18l-5.52,17.7,9.93,2.12,0,1,2,28.83L579,316c.09-3.66-2-9-3.53-14,1.59-3.95,8.28-21.19,8.27-29.49,0-17.75-15.35-19.28-15.35-19.28" style="fill:#fff"></path><path d="M578.55,418.22a4.26,4.26,0,0,1-.43,1c-.31.61-.77,1.48-1.36,2.55-1.18,2.14-2.88,5.06-4.8,8.25L567,438.15l-1.5,2.48a4.16,4.16,0,0,1-.6.87,4.26,4.26,0,0,1,.43-1c.31-.61.77-1.48,1.36-2.55,1.18-2.14,2.88-5.06,4.8-8.25l4.92-8.16,1.5-2.47A4.47,4.47,0,0,1,578.55,418.22Z" style="fill:#263238"></path><path d="M573,295.56a8.88,8.88,0,0,1-3.31.87,8.71,8.71,0,0,1-3.41,0,17.57,17.57,0,0,1,3.35-.53A17.78,17.78,0,0,1,573,295.56Z" style="fill:#fff"></path><path d="M536.72,294.15l-.48,31.29,12.7-71.26c-4.22-.75-12.09,2.57-15.05,6.78-2.12,2.52-3.28,8.32-9.18,25.78l-3.62,11.85-14.68-16.07-9.89,8.94s17.06,27.87,24.19,29.41c9.7,2.1,16-26.72,16-26.72" style="fill:#455a64"></path><path d="M538.75,265.2a5,5,0,0,1-.13,1.22c-.13.88-.3,2-.51,3.29-.43,2.78-1,6.62-1.53,10.88s-.9,8.13-1.16,10.93c-.12,1.32-.22,2.43-.31,3.31a4.94,4.94,0,0,1-.17,1.22,6.19,6.19,0,0,1,0-1.23c0-.79.07-1.92.15-3.33.16-2.81.49-6.69,1-11s1.16-8.11,1.68-10.88c.27-1.38.5-2.5.67-3.27A6.43,6.43,0,0,1,538.75,265.2Z" style="fill:#263238"></path><path d="M535.46,263.83c-.05-.14,1.92-1,4.16-2.36s3.87-2.76,4-2.65a17.21,17.21,0,0,1-8.13,5Z" style="fill:#fff"></path><path d="M531.4,284.46a23.32,23.32,0,0,1-1.23-3.58,23.49,23.49,0,0,1-1.12-3.61,16.26,16.26,0,0,1,2.35,7.19Z" style="fill:#fff"></path><path d="M541.7,273.2a12.25,12.25,0,0,1-.3,4.16,12,12,0,0,1-1.23,4,34.11,34.11,0,0,1,.74-4.07A33.14,33.14,0,0,1,541.7,273.2Z" style="fill:#fff"></path><path d="M527.41,300.48a21.27,21.27,0,0,1-.3,3.67,22.15,22.15,0,0,1-.46,3.67,16.31,16.31,0,0,1,.76-7.34Z" style="fill:#fff"></path><path d="M508.64,300.23a15.34,15.34,0,0,1-2.66-4,15.76,15.76,0,0,1-1.78-4.47,43.24,43.24,0,0,1,2.22,4.24A44.92,44.92,0,0,1,508.64,300.23Z" style="fill:#fff"></path><path d="M519.38,301a8,8,0,0,1-2.74,1.71,7.85,7.85,0,0,1-3.1.95,15.67,15.67,0,0,1,2.89-1.4A15.88,15.88,0,0,1,519.38,301Z" style="fill:#fff"></path><polygon points="570.24 310.88 577.59 398.25 599.73 396.16 578.71 304.42 581.28 279.79 570.24 310.88" style="fill:#455a64"></polygon><path d="M577.59,398.25c-.13,0-1.76-19.37-3.63-43.29s-3.26-43.31-3.13-43.32,1.77,19.36,3.63,43.28S577.73,398.24,577.59,398.25Z" style="fill:#263238"></path><path d="M575.46,312.9a9.31,9.31,0,0,1,.93-2.88,9.58,9.58,0,0,1,1.4-2.68,17.92,17.92,0,0,1-2.33,5.56Z" style="fill:#fff"></path><path d="M581.57,325.9c-.12.09-1.22-1.19-2.77-2.56a37.36,37.36,0,0,1-2.85-2.46,9,9,0,0,1,3.19,2.09A9.14,9.14,0,0,1,581.57,325.9Z" style="fill:#fff"></path><path d="M580.22,343.43a26.65,26.65,0,0,1,1.39-3,27,27,0,0,1,1.31-3.07,7.29,7.29,0,0,1-.86,3.27A7.19,7.19,0,0,1,580.22,343.43Z" style="fill:#fff"></path><path d="M585,357.5a28.77,28.77,0,0,1-5.78-5,14.74,14.74,0,0,1,3,2.31A14.9,14.9,0,0,1,585,357.5Z" style="fill:#fff"></path><path d="M589,367.16a35.74,35.74,0,0,1,.06-8.44,19,19,0,0,1,.22,4.22A18.16,18.16,0,0,1,589,367.16Z" style="fill:#fff"></path><path d="M581.9,373.72a17.76,17.76,0,0,1-.53-3.35A18.48,18.48,0,0,1,581,367a8.8,8.8,0,0,1,.91,3.3A8.65,8.65,0,0,1,581.9,373.72Z" style="fill:#fff"></path><path d="M589.23,382.08a20.29,20.29,0,0,1-6.26-.93,10.06,10.06,0,0,1,3.17.22A10.32,10.32,0,0,1,589.23,382.08Z" style="fill:#fff"></path><path d="M588,393.2a26.51,26.51,0,0,1,4-6,13,13,0,0,1-1.78,3.15A13.65,13.65,0,0,1,588,393.2Z" style="fill:#fff"></path><path d="M537.62,321.48l-37.19-50.66a51.66,51.66,0,0,0,6.17-5.6,51.23,51.23,0,1,0-41.19,16.12,50.11,50.11,0,0,0,5.49.1A51,51,0,0,0,492.3,276l37.57,51.18a4.81,4.81,0,0,0,6.72,1h0A4.81,4.81,0,0,0,537.62,321.48Zm-67-49.64a44,44,0,0,1-4.46-.08,41.62,41.62,0,0,1,1.63-83.11,42.27,42.27,0,0,1,4.51.09,41.62,41.62,0,0,1-1.68,83.1Z" style="fill:#263238"></path><path d="M522.85,293.93,518.44,309s23.08,8.39,35.58,8.23c11.71-.14,15.06-1.47,19.18-10.92S582,286,583,279.71c0,0,6.61-28.79-18.61-26.22L563.69,276s-2.79,9.23-3,9.77c-1.88,5-4.32,12.27-6.68,13.15S522.85,293.93,522.85,293.93Z" style="fill:#455a64"></path><path d="M559.07,306a24.25,24.25,0,0,1-4.3-7.37,24.52,24.52,0,0,1,2.25,3.62A25.85,25.85,0,0,1,559.07,306Z" style="fill:#263238"></path><path d="M561.43,303.63a16.73,16.73,0,0,1-3.35-2.28,16,16,0,0,1-3-2.68,17.27,17.27,0,0,1,3.35,2.28A16,16,0,0,1,561.43,303.63Z" style="fill:#263238"></path><path d="M569.27,262.57a57.9,57.9,0,0,1-2.66,7.05,56.82,56.82,0,0,1-3.11,6.86,56.1,56.1,0,0,1,2.65-7.05A55.89,55.89,0,0,1,569.27,262.57Z" style="fill:#263238"></path><path d="M582,284a5.21,5.21,0,0,1-.33,1.15c-.28.82-.63,1.85-1,3.06-.92,2.58-2.21,6.14-3.73,10s-3,7.37-4.22,9.84c-.59,1.24-1.09,2.23-1.46,2.9a5.06,5.06,0,0,1-.61,1,5.63,5.63,0,0,1,.44-1.11c.35-.79.78-1.79,1.3-3,1.1-2.51,2.55-6,4.08-9.88s2.84-7.32,3.86-10c.5-1.27.92-2.3,1.21-3A5.79,5.79,0,0,1,582,284Z" style="fill:#263238"></path><path d="M544.91,298.26c0,.14-5-.66-11.22-1.78s-11.16-2.14-11.13-2.27,5,.66,11.22,1.78S544.94,298.13,544.91,298.26Z" style="fill:#263238"></path><path d="M571.08,284.52a32.55,32.55,0,0,1,.11-8.13,16.91,16.91,0,0,1,.19,4.07A16.65,16.65,0,0,1,571.08,284.52Z" style="fill:#fff"></path><path d="M562.09,312.2a23,23,0,0,1,1.33-3.05,23.57,23.57,0,0,1,1.32-3.06,7.59,7.59,0,0,1-.86,3.26A7.71,7.71,0,0,1,562.09,312.2Z" style="fill:#fff"></path><path d="M549.88,311.42a124.59,124.59,0,0,1-3.89-7.05,12.15,12.15,0,0,1,2.33,3.32A12,12,0,0,1,549.88,311.42Z" style="fill:#fff"></path><path d="M533,303.63a13.25,13.25,0,0,1-3.27,1.57,13.54,13.54,0,0,1-3.45,1.1,13.25,13.25,0,0,1,3.27-1.57A13.42,13.42,0,0,1,533,303.63Z" style="fill:#fff"></path><path d="M580.35,268.3c-.11.09-1.22-1-2.82-2.14s-3.06-1.73-3-1.87a7.39,7.39,0,0,1,3.28,1.46A7.29,7.29,0,0,1,580.35,268.3Z" style="fill:#fff"></path><path d="M573.15,293.16a18.38,18.38,0,0,1-8,1,26.32,26.32,0,0,1,4-.55A27.65,27.65,0,0,1,573.15,293.16Z" style="fill:#fff"></path><path d="M570.78,216.07a6.15,6.15,0,0,1,7.12-2.94,8.74,8.74,0,0,1,5.63,5.75,15.71,15.71,0,0,1,.15,8.28c-.44,2-1,4.31.3,5.85s3.52,1.4,4.95,2.64a3.43,3.43,0,1,1-4.85,4.83c0,1.39.76,2.66,1.19,4s.49,3-.57,3.89a2.92,2.92,0,0,1-2.94.28,8.55,8.55,0,0,1-2.51-1.81,6.86,6.86,0,0,1,0,4.43,4.39,4.39,0,0,1-3.3,2.78,4.74,4.74,0,0,1-4.6-2.63,10,10,0,0,1-.87-5.49c.21-2.92,1-5.78,1.32-8.68a14.64,14.64,0,0,0-1.08-8.59" style="fill:#407BFF"></path><path d="M587.73,233.12s-.12.07-.38,0a1.21,1.21,0,0,1-.88-.64,1.3,1.3,0,0,1,.41-1.65,1.73,1.73,0,0,1,2.25.13,2.62,2.62,0,0,1,.67,2.68,2.8,2.8,0,0,1-.81,1.38,2.55,2.55,0,0,1-1.59.65,3.24,3.24,0,0,1-1.74-.38,3.6,3.6,0,0,1-1.33-1.3,5.67,5.67,0,0,1-.64-3.72c.37-2.57,1.61-4.72,1.58-6.88a9.94,9.94,0,0,0-1.5-5.4,10.1,10.1,0,0,0-2.6-2.82c-.74-.54-1.21-.74-1.18-.79s.12,0,.35.13a6.46,6.46,0,0,1,.94.5,9.57,9.57,0,0,1,2.79,2.79,10.12,10.12,0,0,1,1.66,5.6c0,2.29-1.21,4.51-1.55,6.94a5.2,5.2,0,0,0,.57,3.39,2.87,2.87,0,0,0,2.62,1.48,2.19,2.19,0,0,0,2-1.68,2.26,2.26,0,0,0-.51-2.31,1.43,1.43,0,0,0-1.84-.17,1.1,1.1,0,0,0-.41,1.34,1.18,1.18,0,0,0,.73.63C587.59,233.12,587.72,233.09,587.73,233.12Z" style="fill:#407BFF"></path><path d="M564.59,254.05l1.34-30.52-12.12-9.18-11,5.39s-.37,13.83,0,19.83,6.42,6.64,6.42,6.64-.14,3.51-.28,7.21a7.84,7.84,0,0,0,7.91,8.13h0A7.84,7.84,0,0,0,564.59,254.05Z" style="fill:#ffbe9d"></path><path d="M544,229.82a.77.77,0,1,0,.77-.77A.78.78,0,0,0,544,229.82Z" style="fill:#263238"></path><path d="M543.25,229c.1.1.66-.38,1.49-.42s1.45.35,1.53.24-.06-.23-.33-.42a2,2,0,0,0-2.41.15C543.28,228.74,543.2,228.94,543.25,229Z" style="fill:#263238"></path><path d="M552.89,229.82a.77.77,0,1,0,.77-.77A.77.77,0,0,0,552.89,229.82Z" style="fill:#263238"></path><path d="M552.41,229c.1.1.67-.38,1.49-.42s1.45.35,1.54.24-.06-.23-.34-.42a2,2,0,0,0-2.41.15C552.44,228.74,552.36,228.94,552.41,229Z" style="fill:#263238"></path><path d="M552.16,236.75a15,15,0,0,1-4,1.37,2.32,2.32,0,0,0,2.74.78A1.7,1.7,0,0,0,552.16,236.75Z" style="fill:#fff"></path><path d="M549.2,246.21a15,15,0,0,0,7.95-2.69s-1.8,4.41-7.82,4.16Z" style="fill:#eb996e"></path><path d="M583.38,240.78a4.3,4.3,0,0,1-2.18-.5,6,6,0,0,1-2.37-2.29,26.43,26.43,0,0,1-1.77-3.8c-1.12-2.79-2-5.38-2.54-7.27l-.25-.83c0-.32-.1-.61-.15-.82-3.28-12.51-14.27-14.84-16.45-14.84s-6.41-1.28-12.36,4.9a13.76,13.76,0,0,0-2.25,3.12,13.19,13.19,0,0,0-2.65,5.64,6.67,6.67,0,0,0-.14,3c.11,0,.13-1.13.59-2.87a14.64,14.64,0,0,1,1.16-2.95,11.39,11.39,0,0,0,.61,6.91l2.13-.59,7.64-2.6c-.7-2.36.33-5.3.9-6.67l.06-.05a11.93,11.93,0,0,0,10.1,9.8l1.41,19.65c10.16-2.17,9.92-15.76,9.86-18.52.46,1.55,1.06,3.34,1.81,5.21a22.42,22.42,0,0,0,1.86,3.87,6.19,6.19,0,0,0,2.63,2.38,4.19,4.19,0,0,0,2.37.35,1.64,1.64,0,0,0,.82-.31A6.69,6.69,0,0,0,583.38,240.78Z" style="fill:#407BFF"></path><path d="M549.43,236a6.63,6.63,0,0,0-1.35-.17c-.21,0-.42,0-.46-.19a1.17,1.17,0,0,1,.11-.67l.57-1.71c.39-1.22.73-2.33,1-3.14a5,5,0,0,0,.3-1.33A6.2,6.2,0,0,0,549,230c-.28.79-.65,1.89-1,3.11l-.54,1.72a1.31,1.31,0,0,0-.08.86.52.52,0,0,0,.35.3,1.54,1.54,0,0,0,.36,0A5.26,5.26,0,0,0,549.43,236Z" style="fill:#263238"></path><path d="M566.57,235.71a7.39,7.39,0,0,1,.32-3,2.78,2.78,0,0,1,2.15-1.86,2.36,2.36,0,0,1,2.44,2,2.91,2.91,0,0,1-1.48,2.88,3.84,3.84,0,0,1-3.34.1" style="fill:#ffbe9d"></path><path d="M568.31,234.84c0-.07.33.08.75-.05a1.33,1.33,0,0,0,.9-1.27,1,1,0,0,0-.21-.8.93.93,0,0,0-.66-.2c-.45,0-.76.16-.79.09s.2-.28.74-.44a1.2,1.2,0,0,1,1,.2,1.38,1.38,0,0,1,.41,1.18,1.88,1.88,0,0,1-.45,1.12,1.4,1.4,0,0,1-.88.47C568.54,235.2,568.27,234.88,568.31,234.84Z" style="fill:#eb996e"></path><path d="M570.11,235.66s.45.31.45,1.11A1.81,1.81,0,0,1,570,238a2,2,0,0,1-1.61.5,2,2,0,0,1-1.38-1,1.77,1.77,0,0,1-.13-1.37c.25-.77.76-1,.78-.92s-.32.35-.44,1a1.51,1.51,0,0,0,2.47,1.43,1.45,1.45,0,0,0,.52-.94A4,4,0,0,0,570.11,235.66Z" style="fill:#263238"></path><path d="M566.59,231.53a2.26,2.26,0,0,1-.77.47,6,6,0,0,1-2.43.5,7.72,7.72,0,0,1-3.58-.9,9.64,9.64,0,0,1-3.33-3,17.41,17.41,0,0,1-2.66-7.65c-.14-1-.21-1.86-.25-2.43a2.71,2.71,0,0,1,0-.91,32.44,32.44,0,0,1,.6,3.29,18.72,18.72,0,0,0,2.72,7.41A9.52,9.52,0,0,0,560,231.2a7.79,7.79,0,0,0,3.36.94A8.41,8.41,0,0,0,566.59,231.53Z" style="fill:#407BFF"></path><path d="M573.32,222.93c-.15,0-.6-1.73-1.77-3.61s-2.55-3.07-2.45-3.19a7.46,7.46,0,0,1,2.87,2.93A7.36,7.36,0,0,1,573.32,222.93Z" style="fill:#263238"></path><path d="M518.89,307.46l-3.53,0c-3.21-.31-5-.36-5.9-1.21-1.2-1.15.45-2.27.45-2.27s-2.32-.8-2.1-2.21c.14-1,1.24-1.07,1.24-1.07s-2-.8-2.45-1.66c-.55-1.16.89-1.78.89-1.78-2.79-1.72-2.53-3.43-1.89-3.6s2.82.84,2.82.84c1.84.52,6.86,2.05,5-.72s-2.24-5.59-1.82-6.43a1,1,0,0,1,1.92.47,11.89,11.89,0,0,0,1.31,3.1A8.37,8.37,0,0,0,516.5,293c.79.7,1.49,1.26,2.09,1.73l3.14,3Z" style="fill:#ffbe9d"></path><path d="M496.92,272.23c.26-.76.89-1.3,1.57-.94h0a1.2,1.2,0,0,1,.22,1.17l-2.18,7.09h0l2.06-5c.26-.76.95-1.22,1.42-.81a1.28,1.28,0,0,1,.17,1.15l-1.88,5.89,1.53-3.68c.32-.84.69-1.07,1.12-.88s.44.8.34,1.14L500,281.7c.28.84,1.24,3.47.31,4.95,0,.07.1.32.09.4l.44.5L498,290.16s-2.67-6.75-3.18-8.78a5.85,5.85,0,0,1,.16-3.54Z" style="fill:#ffbe9d"></path></g></svg>